<svg width="24" height="24" viewBox="0 0 24 24" fill="none" xmlns="http://www.w3.org/2000/svg">
<rect width="24" height="24" rx="12" fill="#F2774E" fill-opacity="0.4"/>
<path fill-rule="evenodd" clip-rule="evenodd" d="M9.33301 7.3335C9.33301 6.80306 9.54372 6.29436 9.91879 5.91928C10.2939 5.54421 10.8026 5.3335 11.333 5.3335H16.6663C17.1968 5.3335 17.7055 5.54421 18.0806 5.91928C18.4556 6.29436 18.6663 6.80306 18.6663 7.3335V16.6668C18.6663 17.1973 18.4556 17.706 18.0806 18.081C17.7055 18.4561 17.1968 18.6668 16.6663 18.6668H11.333C10.8026 18.6668 10.2939 18.4561 9.91879 18.081C9.54372 17.706 9.33301 17.1973 9.33301 16.6668V7.3335ZM11.333 6.66683C11.1562 6.66683 10.9866 6.73707 10.8616 6.86209C10.7366 6.98712 10.6663 7.15669 10.6663 7.3335V16.6668C10.6663 16.8436 10.7366 17.0132 10.8616 17.1382C10.9866 17.2633 11.1562 17.3335 11.333 17.3335H16.6663C16.8432 17.3335 17.0127 17.2633 17.1377 17.1382C17.2628 17.0132 17.333 16.8436 17.333 16.6668V7.3335C17.333 7.15669 17.2628 6.98712 17.1377 6.86209C17.0127 6.73707 16.8432 6.66683 16.6663 6.66683H11.333Z" fill="white"/>
<path fill-rule="evenodd" clip-rule="evenodd" d="M5.33301 11.3335C5.33301 10.8031 5.54372 10.2944 5.91879 9.91928C6.29387 9.54421 6.80257 9.3335 7.33301 9.3335H10.333V10.6668H7.33301C7.1562 10.6668 6.98663 10.7371 6.8616 10.8621C6.73658 10.9871 6.66634 11.1567 6.66634 11.3335V16.6668C6.66634 16.8436 6.73658 17.0132 6.8616 17.1382C6.98663 17.2633 7.1562 17.3335 7.33301 17.3335H13.6663V18.6668H7.33301C6.80257 18.6668 6.29387 18.4561 5.91879 18.081C5.54372 17.706 5.33301 17.1973 5.33301 16.6668V11.3335Z" fill="white"/>
<path fill-rule="evenodd" clip-rule="evenodd" d="M12 15.3333C12 14.9797 12.1405 14.6406 12.3905 14.3905C12.6406 14.1405 12.9797 14 13.3333 14H14.6667C15.0203 14 15.3594 14.1405 15.6095 14.3905C15.8595 14.6406 16 14.9797 16 15.3333V17.3333H14.6667V15.3333H13.3333V17.3333H12V15.3333Z" fill="white"/>
<path d="M11.9997 8.00016C11.9997 7.82335 12.0699 7.65378 12.1949 7.52876C12.32 7.40373 12.4895 7.3335 12.6663 7.3335C12.8432 7.3335 13.0127 7.40373 13.1377 7.52876C13.2628 7.65378 13.333 7.82335 13.333 8.00016V8.66683C13.333 8.84364 13.2628 9.01321 13.1377 9.13823C13.0127 9.26326 12.8432 9.3335 12.6663 9.3335C12.4895 9.3335 12.32 9.26326 12.1949 9.13823C12.0699 9.01321 11.9997 8.84364 11.9997 8.66683V8.00016ZM11.9997 11.3335C11.9997 11.1567 12.0699 10.9871 12.1949 10.8621C12.32 10.7371 12.4895 10.6668 12.6663 10.6668C12.8432 10.6668 13.0127 10.7371 13.1377 10.8621C13.2628 10.9871 13.333 11.1567 13.333 11.3335V12.0002C13.333 12.177 13.2628 12.3465 13.1377 12.4716C13.0127 12.5966 12.8432 12.6668 12.6663 12.6668C12.4895 12.6668 12.32 12.5966 12.1949 12.4716C12.0699 12.3465 11.9997 12.177 11.9997 12.0002V11.3335ZM7.33301 14.0002C7.33301 13.8234 7.40325 13.6538 7.52827 13.5288C7.65329 13.4037 7.82286 13.3335 7.99967 13.3335C8.17649 13.3335 8.34605 13.4037 8.47108 13.5288C8.5961 13.6538 8.66634 13.8234 8.66634 14.0002V14.6668C8.66634 14.8436 8.5961 15.0132 8.47108 15.1382C8.34605 15.2633 8.17649 15.3335 7.99967 15.3335C7.82286 15.3335 7.65329 15.2633 7.52827 15.1382C7.40325 15.0132 7.33301 14.8436 7.33301 14.6668V14.0002ZM14.6663 8.00016C14.6663 7.82335 14.7366 7.65378 14.8616 7.52876C14.9866 7.40373 15.1562 7.3335 15.333 7.3335C15.5098 7.3335 15.6794 7.40373 15.8044 7.52876C15.9294 7.65378 15.9997 7.82335 15.9997 8.00016V8.66683C15.9997 8.84364 15.9294 9.01321 15.8044 9.13823C15.6794 9.26326 15.5098 9.3335 15.333 9.3335C15.1562 9.3335 14.9866 9.26326 14.8616 9.13823C14.7366 9.01321 14.6663 8.84364 14.6663 8.66683V8.00016ZM14.6663 11.3335C14.6663 11.1567 14.7366 10.9871 14.8616 10.8621C14.9866 10.7371 15.1562 10.6668 15.333 10.6668C15.5098 10.6668 15.6794 10.7371 15.8044 10.8621C15.9294 10.9871 15.9997 11.1567 15.9997 11.3335V12.0002C15.9997 12.177 15.9294 12.3465 15.8044 12.4716C15.6794 12.5966 15.5098 12.6668 15.333 12.6668C15.1562 12.6668 14.9866 12.5966 14.8616 12.4716C14.7366 12.3465 14.6663 12.177 14.6663 12.0002V11.3335Z" fill="white"/>
</svg>
